<mxfile host="Electron" modified="2024-07-03T10:59:53.772Z" agent="Mozilla/5.0 (Windows NT 10.0; Win64; x64) AppleWebKit/537.36 (KHTML, like Gecko) draw.io/24.6.4 Chrome/124.0.6367.207 Electron/30.0.6 Safari/537.36" etag="b9BDvqmE3WmscOFVd4Dj" version="24.6.4" type="device">
  <diagram name="Page-1" id="sqNwMqskgFGyr_NSquQn">
    <mxGraphModel dx="2443" dy="812" grid="1" gridSize="10" guides="1" tooltips="1" connect="1" arrows="1" fold="1" page="1" pageScale="1" pageWidth="850" pageHeight="1100" math="0" shadow="0">
      <root>
        <mxCell id="0" />
        <mxCell id="1" parent="0" />
        <mxCell id="HbxGi6H0YP1Ia_wOUCqk-3" value="&lt;font style=&quot;font-size: 18px;&quot; color=&quot;#ffffff&quot;&gt;Pesawat&lt;/font&gt;" style="rounded=0;whiteSpace=wrap;html=1;labelBackgroundColor=none;fillColor=#fa6800;strokeColor=#C73500;fontColor=#000000;" parent="1" vertex="1">
          <mxGeometry x="-390" y="320" width="150" height="80" as="geometry" />
        </mxCell>
        <mxCell id="HbxGi6H0YP1Ia_wOUCqk-4" value="&lt;b&gt;&lt;font style=&quot;font-size: 72px;&quot;&gt;MASKAPAI SATSET&lt;/font&gt;&lt;/b&gt;" style="text;html=1;align=center;verticalAlign=middle;whiteSpace=wrap;rounded=0;" parent="1" vertex="1">
          <mxGeometry x="110" y="80" width="730" height="30" as="geometry" />
        </mxCell>
        <mxCell id="HbxGi6H0YP1Ia_wOUCqk-6" value="kapasitas_penumpang" style="ellipse;whiteSpace=wrap;html=1;" parent="1" vertex="1">
          <mxGeometry x="-470" y="160" width="140" height="60" as="geometry" />
        </mxCell>
        <mxCell id="HbxGi6H0YP1Ia_wOUCqk-7" value="nomor_registrasi" style="ellipse;whiteSpace=wrap;html=1;" parent="1" vertex="1">
          <mxGeometry x="-390" y="240" width="100" height="60" as="geometry" />
        </mxCell>
        <mxCell id="HbxGi6H0YP1Ia_wOUCqk-8" value="kapasitas_kargo" style="ellipse;whiteSpace=wrap;html=1;" parent="1" vertex="1">
          <mxGeometry x="-550" y="240" width="100" height="60" as="geometry" />
        </mxCell>
        <mxCell id="HbxGi6H0YP1Ia_wOUCqk-9" value="tipe_pesawat" style="ellipse;whiteSpace=wrap;html=1;" parent="1" vertex="1">
          <mxGeometry x="-310" y="160" width="100" height="60" as="geometry" />
        </mxCell>
        <mxCell id="HbxGi6H0YP1Ia_wOUCqk-10" value="id_pesawat" style="ellipse;whiteSpace=wrap;html=1;" parent="1" vertex="1">
          <mxGeometry x="-245" y="230" width="100" height="60" as="geometry" />
        </mxCell>
        <mxCell id="HbxGi6H0YP1Ia_wOUCqk-11" value="tahun_produksi" style="ellipse;whiteSpace=wrap;html=1;" parent="1" vertex="1">
          <mxGeometry x="-510" y="330" width="100" height="60" as="geometry" />
        </mxCell>
        <mxCell id="HbxGi6H0YP1Ia_wOUCqk-12" value="tanggal_pembelian" style="ellipse;whiteSpace=wrap;html=1;" parent="1" vertex="1">
          <mxGeometry x="-550" y="420" width="120" height="60" as="geometry" />
        </mxCell>
        <mxCell id="HbxGi6H0YP1Ia_wOUCqk-13" value="tanggal_maintenance_terakhir" style="ellipse;whiteSpace=wrap;html=1;" parent="1" vertex="1">
          <mxGeometry x="-410" y="430" width="180" height="60" as="geometry" />
        </mxCell>
        <mxCell id="HbxGi6H0YP1Ia_wOUCqk-19" value="" style="endArrow=none;html=1;rounded=0;" parent="1" edge="1">
          <mxGeometry width="50" height="50" relative="1" as="geometry">
            <mxPoint x="-300" y="320" as="sourcePoint" />
            <mxPoint x="-200" y="290" as="targetPoint" />
          </mxGeometry>
        </mxCell>
        <mxCell id="HbxGi6H0YP1Ia_wOUCqk-21" value="" style="endArrow=none;html=1;rounded=0;" parent="1" source="HbxGi6H0YP1Ia_wOUCqk-3" target="HbxGi6H0YP1Ia_wOUCqk-9" edge="1">
          <mxGeometry width="50" height="50" relative="1" as="geometry">
            <mxPoint x="-300" y="310" as="sourcePoint" />
            <mxPoint x="-257.5" y="220" as="targetPoint" />
          </mxGeometry>
        </mxCell>
        <mxCell id="HbxGi6H0YP1Ia_wOUCqk-22" value="" style="endArrow=none;html=1;rounded=0;exitX=0.589;exitY=0.012;exitDx=0;exitDy=0;exitPerimeter=0;" parent="1" source="HbxGi6H0YP1Ia_wOUCqk-3" edge="1">
          <mxGeometry width="50" height="50" relative="1" as="geometry">
            <mxPoint x="-390" y="400" as="sourcePoint" />
            <mxPoint x="-337.5" y="300" as="targetPoint" />
          </mxGeometry>
        </mxCell>
        <mxCell id="HbxGi6H0YP1Ia_wOUCqk-26" value="" style="endArrow=none;html=1;rounded=0;exitX=0.087;exitY=-0.032;exitDx=0;exitDy=0;exitPerimeter=0;entryX=0.345;entryY=0.957;entryDx=0;entryDy=0;entryPerimeter=0;" parent="1" source="HbxGi6H0YP1Ia_wOUCqk-3" target="HbxGi6H0YP1Ia_wOUCqk-6" edge="1">
          <mxGeometry width="50" height="50" relative="1" as="geometry">
            <mxPoint x="-443" y="320" as="sourcePoint" />
            <mxPoint x="-410" y="219" as="targetPoint" />
          </mxGeometry>
        </mxCell>
        <mxCell id="HbxGi6H0YP1Ia_wOUCqk-27" value="" style="endArrow=none;html=1;rounded=0;" parent="1" source="HbxGi6H0YP1Ia_wOUCqk-3" edge="1">
          <mxGeometry width="50" height="50" relative="1" as="geometry">
            <mxPoint x="-419" y="366" as="sourcePoint" />
            <mxPoint x="-450" y="270" as="targetPoint" />
          </mxGeometry>
        </mxCell>
        <mxCell id="HbxGi6H0YP1Ia_wOUCqk-28" value="" style="endArrow=none;html=1;rounded=0;exitX=0;exitY=0.5;exitDx=0;exitDy=0;entryX=0.345;entryY=0.957;entryDx=0;entryDy=0;entryPerimeter=0;" parent="1" source="HbxGi6H0YP1Ia_wOUCqk-3" edge="1">
          <mxGeometry width="50" height="50" relative="1" as="geometry">
            <mxPoint x="-365" y="460" as="sourcePoint" />
            <mxPoint x="-410" y="360" as="targetPoint" />
          </mxGeometry>
        </mxCell>
        <mxCell id="HbxGi6H0YP1Ia_wOUCqk-30" value="" style="endArrow=none;html=1;rounded=0;" parent="1" edge="1">
          <mxGeometry width="50" height="50" relative="1" as="geometry">
            <mxPoint x="-470" y="421" as="sourcePoint" />
            <mxPoint x="-390" y="360" as="targetPoint" />
          </mxGeometry>
        </mxCell>
        <mxCell id="HbxGi6H0YP1Ia_wOUCqk-31" value="" style="endArrow=none;html=1;rounded=0;entryX=0.5;entryY=1;entryDx=0;entryDy=0;exitX=0.5;exitY=0;exitDx=0;exitDy=0;" parent="1" source="HbxGi6H0YP1Ia_wOUCqk-13" target="HbxGi6H0YP1Ia_wOUCqk-3" edge="1">
          <mxGeometry width="50" height="50" relative="1" as="geometry">
            <mxPoint x="-325" y="430" as="sourcePoint" />
            <mxPoint x="-245" y="369" as="targetPoint" />
          </mxGeometry>
        </mxCell>
        <mxCell id="HbxGi6H0YP1Ia_wOUCqk-32" value="&lt;font style=&quot;font-size: 18px;&quot; color=&quot;#ffffff&quot;&gt;Konfigurasi_kursi&lt;/font&gt;" style="rounded=0;whiteSpace=wrap;html=1;labelBackgroundColor=none;fillColor=#fa6800;strokeColor=#C73500;fontColor=#000000;" parent="1" vertex="1">
          <mxGeometry x="15" y="320" width="150" height="80" as="geometry" />
        </mxCell>
        <mxCell id="HbxGi6H0YP1Ia_wOUCqk-35" value="layout_kursi" style="ellipse;whiteSpace=wrap;html=1;" parent="1" vertex="1">
          <mxGeometry x="-67" y="175" width="100" height="60" as="geometry" />
        </mxCell>
        <mxCell id="HbxGi6H0YP1Ia_wOUCqk-36" value="jumlah_kursi" style="ellipse;whiteSpace=wrap;html=1;" parent="1" vertex="1">
          <mxGeometry x="33" y="230" width="100" height="60" as="geometry" />
        </mxCell>
        <mxCell id="HbxGi6H0YP1Ia_wOUCqk-37" value="kelas" style="ellipse;whiteSpace=wrap;html=1;" parent="1" vertex="1">
          <mxGeometry x="113" y="165" width="100" height="60" as="geometry" />
        </mxCell>
        <mxCell id="HbxGi6H0YP1Ia_wOUCqk-38" value="id_konfigurasi" style="ellipse;whiteSpace=wrap;html=1;" parent="1" vertex="1">
          <mxGeometry x="-110" y="250" width="100" height="60" as="geometry" />
        </mxCell>
        <mxCell id="HbxGi6H0YP1Ia_wOUCqk-39" value="id_pesawat" style="ellipse;whiteSpace=wrap;html=1;" parent="1" vertex="1">
          <mxGeometry x="173" y="240" width="100" height="60" as="geometry" />
        </mxCell>
        <mxCell id="HbxGi6H0YP1Ia_wOUCqk-40" value="" style="endArrow=none;html=1;rounded=0;entryX=0.5;entryY=1;entryDx=0;entryDy=0;" parent="1" target="HbxGi6H0YP1Ia_wOUCqk-36" edge="1">
          <mxGeometry width="50" height="50" relative="1" as="geometry">
            <mxPoint x="75" y="320" as="sourcePoint" />
            <mxPoint x="75" y="300" as="targetPoint" />
          </mxGeometry>
        </mxCell>
        <mxCell id="HbxGi6H0YP1Ia_wOUCqk-41" value="" style="endArrow=none;html=1;rounded=0;exitX=0.38;exitY=-0.01;exitDx=0;exitDy=0;exitPerimeter=0;entryX=0.5;entryY=1;entryDx=0;entryDy=0;" parent="1" source="HbxGi6H0YP1Ia_wOUCqk-32" target="HbxGi6H0YP1Ia_wOUCqk-35" edge="1">
          <mxGeometry width="50" height="50" relative="1" as="geometry">
            <mxPoint x="-125" y="280" as="sourcePoint" />
            <mxPoint x="-25" y="250" as="targetPoint" />
          </mxGeometry>
        </mxCell>
        <mxCell id="HbxGi6H0YP1Ia_wOUCqk-42" value="" style="endArrow=none;html=1;rounded=0;exitX=0;exitY=0.25;exitDx=0;exitDy=0;entryX=1;entryY=1;entryDx=0;entryDy=0;" parent="1" source="HbxGi6H0YP1Ia_wOUCqk-32" target="HbxGi6H0YP1Ia_wOUCqk-38" edge="1">
          <mxGeometry width="50" height="50" relative="1" as="geometry">
            <mxPoint x="82" y="389" as="sourcePoint" />
            <mxPoint x="-22.366934085690445" y="325.6739212920256" as="targetPoint" />
          </mxGeometry>
        </mxCell>
        <mxCell id="HbxGi6H0YP1Ia_wOUCqk-43" value="" style="endArrow=none;html=1;rounded=0;exitX=0.685;exitY=-0.01;exitDx=0;exitDy=0;exitPerimeter=0;entryX=0.5;entryY=1;entryDx=0;entryDy=0;" parent="1" source="HbxGi6H0YP1Ia_wOUCqk-32" target="HbxGi6H0YP1Ia_wOUCqk-37" edge="1">
          <mxGeometry width="50" height="50" relative="1" as="geometry">
            <mxPoint x="252" y="299" as="sourcePoint" />
            <mxPoint x="155" y="225" as="targetPoint" />
          </mxGeometry>
        </mxCell>
        <mxCell id="HbxGi6H0YP1Ia_wOUCqk-44" value="" style="endArrow=none;html=1;rounded=0;exitX=0.75;exitY=0;exitDx=0;exitDy=0;entryX=0;entryY=1;entryDx=0;entryDy=0;" parent="1" source="HbxGi6H0YP1Ia_wOUCqk-32" target="HbxGi6H0YP1Ia_wOUCqk-39" edge="1">
          <mxGeometry width="50" height="50" relative="1" as="geometry">
            <mxPoint x="155" y="361.58" as="sourcePoint" />
            <mxPoint x="214.7299602788048" y="280.00417138749884" as="targetPoint" />
          </mxGeometry>
        </mxCell>
        <mxCell id="HbxGi6H0YP1Ia_wOUCqk-46" value="&lt;font style=&quot;font-size: 18px;&quot; color=&quot;#ffffff&quot;&gt;Bandara&lt;/font&gt;" style="rounded=0;whiteSpace=wrap;html=1;labelBackgroundColor=none;fillColor=#fa6800;strokeColor=#C73500;fontColor=#000000;" parent="1" vertex="1">
          <mxGeometry x="950" y="320" width="150" height="80" as="geometry" />
        </mxCell>
        <mxCell id="HbxGi6H0YP1Ia_wOUCqk-48" value="zona_waktu" style="ellipse;whiteSpace=wrap;html=1;" parent="1" vertex="1">
          <mxGeometry x="800" y="310" width="100" height="60" as="geometry" />
        </mxCell>
        <mxCell id="HbxGi6H0YP1Ia_wOUCqk-49" value="longitude" style="ellipse;whiteSpace=wrap;html=1;" parent="1" vertex="1">
          <mxGeometry x="860" y="240" width="100" height="60" as="geometry" />
        </mxCell>
        <mxCell id="HbxGi6H0YP1Ia_wOUCqk-50" value="negara" style="ellipse;whiteSpace=wrap;html=1;" parent="1" vertex="1">
          <mxGeometry x="1030" y="215" width="100" height="60" as="geometry" />
        </mxCell>
        <mxCell id="HbxGi6H0YP1Ia_wOUCqk-51" value="kota" style="ellipse;whiteSpace=wrap;html=1;" parent="1" vertex="1">
          <mxGeometry x="1150" y="195" width="100" height="60" as="geometry" />
        </mxCell>
        <mxCell id="HbxGi6H0YP1Ia_wOUCqk-52" value="kode_bandara" style="ellipse;whiteSpace=wrap;html=1;" parent="1" vertex="1">
          <mxGeometry x="1120" y="275" width="100" height="60" as="geometry" />
        </mxCell>
        <mxCell id="HbxGi6H0YP1Ia_wOUCqk-53" value="nama_bandara" style="ellipse;whiteSpace=wrap;html=1;" parent="1" vertex="1">
          <mxGeometry x="1190" y="335" width="100" height="60" as="geometry" />
        </mxCell>
        <mxCell id="HbxGi6H0YP1Ia_wOUCqk-54" value="id_bandara" style="ellipse;whiteSpace=wrap;html=1;" parent="1" vertex="1">
          <mxGeometry x="1110" y="400" width="100" height="60" as="geometry" />
        </mxCell>
        <mxCell id="HbxGi6H0YP1Ia_wOUCqk-56" value="latitude" style="ellipse;whiteSpace=wrap;html=1;" parent="1" vertex="1">
          <mxGeometry x="940" y="175" width="100" height="60" as="geometry" />
        </mxCell>
        <mxCell id="HbxGi6H0YP1Ia_wOUCqk-57" value="" style="endArrow=none;html=1;rounded=0;exitX=0;exitY=0.5;exitDx=0;exitDy=0;" parent="1" source="HbxGi6H0YP1Ia_wOUCqk-46" edge="1">
          <mxGeometry width="50" height="50" relative="1" as="geometry">
            <mxPoint x="850" y="395" as="sourcePoint" />
            <mxPoint x="900" y="345" as="targetPoint" />
          </mxGeometry>
        </mxCell>
        <mxCell id="HbxGi6H0YP1Ia_wOUCqk-58" value="" style="endArrow=none;html=1;rounded=0;" parent="1" target="HbxGi6H0YP1Ia_wOUCqk-49" edge="1">
          <mxGeometry width="50" height="50" relative="1" as="geometry">
            <mxPoint x="950" y="360" as="sourcePoint" />
            <mxPoint x="1010" y="310" as="targetPoint" />
          </mxGeometry>
        </mxCell>
        <mxCell id="HbxGi6H0YP1Ia_wOUCqk-59" value="" style="endArrow=none;html=1;rounded=0;exitX=0.111;exitY=-0.01;exitDx=0;exitDy=0;entryX=0.5;entryY=1;entryDx=0;entryDy=0;exitPerimeter=0;" parent="1" source="HbxGi6H0YP1Ia_wOUCqk-46" target="HbxGi6H0YP1Ia_wOUCqk-56" edge="1">
          <mxGeometry width="50" height="50" relative="1" as="geometry">
            <mxPoint x="1011" y="280" as="sourcePoint" />
            <mxPoint x="990" y="210" as="targetPoint" />
          </mxGeometry>
        </mxCell>
        <mxCell id="HbxGi6H0YP1Ia_wOUCqk-60" value="" style="endArrow=none;html=1;rounded=0;exitX=0.75;exitY=0;exitDx=0;exitDy=0;entryX=0.5;entryY=1;entryDx=0;entryDy=0;" parent="1" source="HbxGi6H0YP1Ia_wOUCqk-46" target="HbxGi6H0YP1Ia_wOUCqk-50" edge="1">
          <mxGeometry width="50" height="50" relative="1" as="geometry">
            <mxPoint x="1000" y="340" as="sourcePoint" />
            <mxPoint x="1050" y="290" as="targetPoint" />
          </mxGeometry>
        </mxCell>
        <mxCell id="HbxGi6H0YP1Ia_wOUCqk-61" value="" style="endArrow=none;html=1;rounded=0;exitX=0.75;exitY=0;exitDx=0;exitDy=0;entryX=0;entryY=1;entryDx=0;entryDy=0;" parent="1" source="HbxGi6H0YP1Ia_wOUCqk-46" target="HbxGi6H0YP1Ia_wOUCqk-51" edge="1">
          <mxGeometry width="50" height="50" relative="1" as="geometry">
            <mxPoint x="1200" y="340" as="sourcePoint" />
            <mxPoint x="1145" y="230" as="targetPoint" />
          </mxGeometry>
        </mxCell>
        <mxCell id="HbxGi6H0YP1Ia_wOUCqk-62" value="" style="endArrow=none;html=1;rounded=0;exitX=1;exitY=0.5;exitDx=0;exitDy=0;entryX=0;entryY=1;entryDx=0;entryDy=0;" parent="1" source="HbxGi6H0YP1Ia_wOUCqk-46" target="HbxGi6H0YP1Ia_wOUCqk-52" edge="1">
          <mxGeometry width="50" height="50" relative="1" as="geometry">
            <mxPoint x="1080" y="415" as="sourcePoint" />
            <mxPoint x="1162" y="325" as="targetPoint" />
          </mxGeometry>
        </mxCell>
        <mxCell id="HbxGi6H0YP1Ia_wOUCqk-63" value="" style="endArrow=none;html=1;rounded=0;entryX=0;entryY=0.5;entryDx=0;entryDy=0;" parent="1" target="HbxGi6H0YP1Ia_wOUCqk-53" edge="1">
          <mxGeometry width="50" height="50" relative="1" as="geometry">
            <mxPoint x="1100" y="360" as="sourcePoint" />
            <mxPoint x="1180" y="370" as="targetPoint" />
          </mxGeometry>
        </mxCell>
        <mxCell id="HbxGi6H0YP1Ia_wOUCqk-64" value="" style="endArrow=none;html=1;rounded=0;entryX=0.446;entryY=0;entryDx=0;entryDy=0;exitX=1;exitY=0.5;exitDx=0;exitDy=0;entryPerimeter=0;" parent="1" source="HbxGi6H0YP1Ia_wOUCqk-46" target="HbxGi6H0YP1Ia_wOUCqk-54" edge="1">
          <mxGeometry width="50" height="50" relative="1" as="geometry">
            <mxPoint x="1080" y="390" as="sourcePoint" />
            <mxPoint x="1160" y="400" as="targetPoint" />
          </mxGeometry>
        </mxCell>
        <mxCell id="HbxGi6H0YP1Ia_wOUCqk-65" value="&lt;font style=&quot;font-size: 18px;&quot; color=&quot;#ffffff&quot;&gt;Rute&lt;/font&gt;" style="rounded=0;whiteSpace=wrap;html=1;labelBackgroundColor=none;fillColor=#fa6800;strokeColor=#C73500;fontColor=#000000;" parent="1" vertex="1">
          <mxGeometry x="450" y="320" width="150" height="80" as="geometry" />
        </mxCell>
        <mxCell id="HbxGi6H0YP1Ia_wOUCqk-66" value="id_rute" style="ellipse;whiteSpace=wrap;html=1;" parent="1" vertex="1">
          <mxGeometry x="570" y="215" width="100" height="60" as="geometry" />
        </mxCell>
        <mxCell id="HbxGi6H0YP1Ia_wOUCqk-67" value="bandara_asal" style="ellipse;whiteSpace=wrap;html=1;" parent="1" vertex="1">
          <mxGeometry x="475" y="150" width="100" height="60" as="geometry" />
        </mxCell>
        <mxCell id="HbxGi6H0YP1Ia_wOUCqk-68" value="bandara_tujuan" style="ellipse;whiteSpace=wrap;html=1;" parent="1" vertex="1">
          <mxGeometry x="400" y="220" width="100" height="60" as="geometry" />
        </mxCell>
        <mxCell id="HbxGi6H0YP1Ia_wOUCqk-69" value="jarak_km" style="ellipse;whiteSpace=wrap;html=1;" parent="1" vertex="1">
          <mxGeometry x="320" y="270" width="100" height="60" as="geometry" />
        </mxCell>
        <mxCell id="HbxGi6H0YP1Ia_wOUCqk-70" value="durasi_penerbangan" style="ellipse;whiteSpace=wrap;html=1;" parent="1" vertex="1">
          <mxGeometry x="640" y="280" width="120" height="60" as="geometry" />
        </mxCell>
        <mxCell id="HbxGi6H0YP1Ia_wOUCqk-71" value="" style="endArrow=none;html=1;rounded=0;exitX=0.5;exitY=0;exitDx=0;exitDy=0;entryX=0.5;entryY=1;entryDx=0;entryDy=0;" parent="1" source="HbxGi6H0YP1Ia_wOUCqk-65" target="HbxGi6H0YP1Ia_wOUCqk-66" edge="1">
          <mxGeometry width="50" height="50" relative="1" as="geometry">
            <mxPoint x="520" y="389" as="sourcePoint" />
            <mxPoint x="557" y="300" as="targetPoint" />
          </mxGeometry>
        </mxCell>
        <mxCell id="HbxGi6H0YP1Ia_wOUCqk-73" value="" style="endArrow=none;html=1;rounded=0;exitX=0.5;exitY=0;exitDx=0;exitDy=0;entryX=0.5;entryY=1;entryDx=0;entryDy=0;" parent="1" source="HbxGi6H0YP1Ia_wOUCqk-65" target="HbxGi6H0YP1Ia_wOUCqk-67" edge="1">
          <mxGeometry width="50" height="50" relative="1" as="geometry">
            <mxPoint x="430" y="341" as="sourcePoint" />
            <mxPoint x="463" y="240" as="targetPoint" />
          </mxGeometry>
        </mxCell>
        <mxCell id="HbxGi6H0YP1Ia_wOUCqk-74" value="" style="endArrow=none;html=1;rounded=0;entryX=1;entryY=1;entryDx=0;entryDy=0;" parent="1" target="HbxGi6H0YP1Ia_wOUCqk-68" edge="1">
          <mxGeometry width="50" height="50" relative="1" as="geometry">
            <mxPoint x="520" y="320" as="sourcePoint" />
            <mxPoint x="473" y="250" as="targetPoint" />
          </mxGeometry>
        </mxCell>
        <mxCell id="HbxGi6H0YP1Ia_wOUCqk-75" value="" style="endArrow=none;html=1;rounded=0;exitX=0;exitY=0.5;exitDx=0;exitDy=0;" parent="1" source="HbxGi6H0YP1Ia_wOUCqk-65" target="HbxGi6H0YP1Ia_wOUCqk-69" edge="1">
          <mxGeometry width="50" height="50" relative="1" as="geometry">
            <mxPoint x="490" y="320" as="sourcePoint" />
            <mxPoint x="420" y="300" as="targetPoint" />
          </mxGeometry>
        </mxCell>
        <mxCell id="HbxGi6H0YP1Ia_wOUCqk-76" value="" style="endArrow=none;html=1;rounded=0;entryX=0;entryY=1;entryDx=0;entryDy=0;exitX=1;exitY=0.25;exitDx=0;exitDy=0;" parent="1" source="HbxGi6H0YP1Ia_wOUCqk-65" target="HbxGi6H0YP1Ia_wOUCqk-70" edge="1">
          <mxGeometry width="50" height="50" relative="1" as="geometry">
            <mxPoint x="450" y="370" as="sourcePoint" />
            <mxPoint x="388" y="400" as="targetPoint" />
          </mxGeometry>
        </mxCell>
        <mxCell id="HbxGi6H0YP1Ia_wOUCqk-77" value="&lt;font style=&quot;font-size: 18px;&quot; color=&quot;#ffffff&quot;&gt;Jadwal_Penerbangan&lt;/font&gt;" style="rounded=0;whiteSpace=wrap;html=1;labelBackgroundColor=none;fillColor=#fa6800;strokeColor=#C73500;fontColor=#000000;" parent="1" vertex="1">
          <mxGeometry x="-575" y="710" width="185" height="80" as="geometry" />
        </mxCell>
        <mxCell id="HbxGi6H0YP1Ia_wOUCqk-78" value="id_jadwal" style="ellipse;whiteSpace=wrap;html=1;" parent="1" vertex="1">
          <mxGeometry x="-490" y="630" width="100" height="60" as="geometry" />
        </mxCell>
        <mxCell id="HbxGi6H0YP1Ia_wOUCqk-79" value="id_rute" style="ellipse;whiteSpace=wrap;html=1;" parent="1" vertex="1">
          <mxGeometry x="-545" y="560" width="100" height="60" as="geometry" />
        </mxCell>
        <mxCell id="HbxGi6H0YP1Ia_wOUCqk-80" value="nomor_penerbangan" style="ellipse;whiteSpace=wrap;html=1;" parent="1" vertex="1">
          <mxGeometry x="-665" y="630" width="130" height="60" as="geometry" />
        </mxCell>
        <mxCell id="HbxGi6H0YP1Ia_wOUCqk-81" value="hari_operasi" style="ellipse;whiteSpace=wrap;html=1;" parent="1" vertex="1">
          <mxGeometry x="-750" y="680" width="100" height="60" as="geometry" />
        </mxCell>
        <mxCell id="HbxGi6H0YP1Ia_wOUCqk-82" value="waktu_berangkat" style="ellipse;whiteSpace=wrap;html=1;" parent="1" vertex="1">
          <mxGeometry x="-700" y="740" width="100" height="60" as="geometry" />
        </mxCell>
        <mxCell id="HbxGi6H0YP1Ia_wOUCqk-83" value="waktu_tiba" style="ellipse;whiteSpace=wrap;html=1;" parent="1" vertex="1">
          <mxGeometry x="-660" y="820" width="100" height="60" as="geometry" />
        </mxCell>
        <mxCell id="HbxGi6H0YP1Ia_wOUCqk-84" value="" style="endArrow=none;html=1;rounded=0;exitX=0.44;exitY=0.004;exitDx=0;exitDy=0;exitPerimeter=0;entryX=0.5;entryY=1;entryDx=0;entryDy=0;" parent="1" source="HbxGi6H0YP1Ia_wOUCqk-77" target="HbxGi6H0YP1Ia_wOUCqk-79" edge="1">
          <mxGeometry width="50" height="50" relative="1" as="geometry">
            <mxPoint x="-458" y="710" as="sourcePoint" />
            <mxPoint x="-520" y="630" as="targetPoint" />
          </mxGeometry>
        </mxCell>
        <mxCell id="HbxGi6H0YP1Ia_wOUCqk-85" value="" style="endArrow=none;html=1;rounded=0;entryX=0.5;entryY=1;entryDx=0;entryDy=0;" parent="1" target="HbxGi6H0YP1Ia_wOUCqk-78" edge="1">
          <mxGeometry width="50" height="50" relative="1" as="geometry">
            <mxPoint x="-510" y="710" as="sourcePoint" />
            <mxPoint x="-455.5" y="690" as="targetPoint" />
          </mxGeometry>
        </mxCell>
        <mxCell id="HbxGi6H0YP1Ia_wOUCqk-86" value="" style="endArrow=none;html=1;rounded=0;entryX=1;entryY=1;entryDx=0;entryDy=0;" parent="1" target="HbxGi6H0YP1Ia_wOUCqk-80" edge="1">
          <mxGeometry width="50" height="50" relative="1" as="geometry">
            <mxPoint x="-510" y="710" as="sourcePoint" />
            <mxPoint x="-560" y="670" as="targetPoint" />
          </mxGeometry>
        </mxCell>
        <mxCell id="HbxGi6H0YP1Ia_wOUCqk-87" value="" style="endArrow=none;html=1;rounded=0;exitX=0;exitY=0.5;exitDx=0;exitDy=0;entryX=1;entryY=0.5;entryDx=0;entryDy=0;" parent="1" source="HbxGi6H0YP1Ia_wOUCqk-77" target="HbxGi6H0YP1Ia_wOUCqk-81" edge="1">
          <mxGeometry width="50" height="50" relative="1" as="geometry">
            <mxPoint x="-580" y="740" as="sourcePoint" />
            <mxPoint x="-630" y="730" as="targetPoint" />
          </mxGeometry>
        </mxCell>
        <mxCell id="HbxGi6H0YP1Ia_wOUCqk-88" value="" style="endArrow=none;html=1;rounded=0;exitX=-0.007;exitY=0.607;exitDx=0;exitDy=0;exitPerimeter=0;entryX=1;entryY=0.5;entryDx=0;entryDy=0;" parent="1" source="HbxGi6H0YP1Ia_wOUCqk-77" target="HbxGi6H0YP1Ia_wOUCqk-82" edge="1">
          <mxGeometry width="50" height="50" relative="1" as="geometry">
            <mxPoint x="-570" y="790" as="sourcePoint" />
            <mxPoint x="-620" y="780" as="targetPoint" />
          </mxGeometry>
        </mxCell>
        <mxCell id="HbxGi6H0YP1Ia_wOUCqk-89" value="" style="endArrow=none;html=1;rounded=0;entryX=1;entryY=0;entryDx=0;entryDy=0;" parent="1" target="HbxGi6H0YP1Ia_wOUCqk-83" edge="1">
          <mxGeometry width="50" height="50" relative="1" as="geometry">
            <mxPoint x="-510" y="790" as="sourcePoint" />
            <mxPoint x="-554" y="830" as="targetPoint" />
          </mxGeometry>
        </mxCell>
        <mxCell id="HbxGi6H0YP1Ia_wOUCqk-90" value="&lt;font style=&quot;font-size: 18px;&quot; color=&quot;#ffffff&quot;&gt;Penerbangan&lt;/font&gt;" style="rounded=0;whiteSpace=wrap;html=1;labelBackgroundColor=none;fillColor=#fa6800;strokeColor=#C73500;fontColor=#000000;" parent="1" vertex="1">
          <mxGeometry x="-390" y="1025" width="150" height="80" as="geometry" />
        </mxCell>
        <mxCell id="HbxGi6H0YP1Ia_wOUCqk-91" value="id_penerbangan" style="ellipse;whiteSpace=wrap;html=1;" parent="1" vertex="1">
          <mxGeometry x="-320" y="955" width="100" height="60" as="geometry" />
        </mxCell>
        <mxCell id="HbxGi6H0YP1Ia_wOUCqk-92" value="id_jadwal" style="ellipse;whiteSpace=wrap;html=1;" parent="1" vertex="1">
          <mxGeometry x="-390" y="895" width="100" height="60" as="geometry" />
        </mxCell>
        <mxCell id="HbxGi6H0YP1Ia_wOUCqk-93" value="id_pesawat" style="ellipse;whiteSpace=wrap;html=1;" parent="1" vertex="1">
          <mxGeometry x="-480" y="945" width="100" height="60" as="geometry" />
        </mxCell>
        <mxCell id="HbxGi6H0YP1Ia_wOUCqk-94" value="tanggal_penerbangan" style="ellipse;whiteSpace=wrap;html=1;" parent="1" vertex="1">
          <mxGeometry x="-590" y="1005" width="130" height="60" as="geometry" />
        </mxCell>
        <mxCell id="HbxGi6H0YP1Ia_wOUCqk-95" value="gate_keberangkatan" style="ellipse;whiteSpace=wrap;html=1;" parent="1" vertex="1">
          <mxGeometry x="-540" y="1085" width="130" height="60" as="geometry" />
        </mxCell>
        <mxCell id="HbxGi6H0YP1Ia_wOUCqk-96" value="gate_kedatangan" style="ellipse;whiteSpace=wrap;html=1;" parent="1" vertex="1">
          <mxGeometry x="-480" y="1175" width="110" height="60" as="geometry" />
        </mxCell>
        <mxCell id="HbxGi6H0YP1Ia_wOUCqk-97" value="keterangan" style="ellipse;whiteSpace=wrap;html=1;" parent="1" vertex="1">
          <mxGeometry x="-280" y="1185" width="100" height="60" as="geometry" />
        </mxCell>
        <mxCell id="HbxGi6H0YP1Ia_wOUCqk-98" value="status_penerbangan" style="ellipse;whiteSpace=wrap;html=1;" parent="1" vertex="1">
          <mxGeometry x="-380" y="1145" width="120" height="60" as="geometry" />
        </mxCell>
        <mxCell id="HbxGi6H0YP1Ia_wOUCqk-99" value="" style="endArrow=none;html=1;rounded=0;" parent="1" edge="1">
          <mxGeometry width="50" height="50" relative="1" as="geometry">
            <mxPoint x="-330" y="1025" as="sourcePoint" />
            <mxPoint x="-310" y="1005" as="targetPoint" />
          </mxGeometry>
        </mxCell>
        <mxCell id="HbxGi6H0YP1Ia_wOUCqk-100" value="" style="endArrow=none;html=1;rounded=0;" parent="1" edge="1">
          <mxGeometry width="50" height="50" relative="1" as="geometry">
            <mxPoint x="-330" y="1024" as="sourcePoint" />
            <mxPoint x="-340" y="955" as="targetPoint" />
          </mxGeometry>
        </mxCell>
        <mxCell id="HbxGi6H0YP1Ia_wOUCqk-101" value="" style="endArrow=none;html=1;rounded=0;entryX=0.969;entryY=0.665;entryDx=0;entryDy=0;entryPerimeter=0;" parent="1" target="HbxGi6H0YP1Ia_wOUCqk-93" edge="1">
          <mxGeometry width="50" height="50" relative="1" as="geometry">
            <mxPoint x="-330" y="1025" as="sourcePoint" />
            <mxPoint x="-380" y="975" as="targetPoint" />
          </mxGeometry>
        </mxCell>
        <mxCell id="HbxGi6H0YP1Ia_wOUCqk-103" value="" style="endArrow=none;html=1;rounded=0;entryX=0.66;entryY=0.02;entryDx=0;entryDy=0;entryPerimeter=0;exitX=0;exitY=0.5;exitDx=0;exitDy=0;" parent="1" source="HbxGi6H0YP1Ia_wOUCqk-90" edge="1">
          <mxGeometry width="50" height="50" relative="1" as="geometry">
            <mxPoint x="-296" y="1053.8" as="sourcePoint" />
            <mxPoint x="-460" y="1035" as="targetPoint" />
          </mxGeometry>
        </mxCell>
        <mxCell id="HbxGi6H0YP1Ia_wOUCqk-104" value="" style="endArrow=none;html=1;rounded=0;entryX=0.66;entryY=0.02;entryDx=0;entryDy=0;entryPerimeter=0;exitX=0;exitY=0.5;exitDx=0;exitDy=0;" parent="1" source="HbxGi6H0YP1Ia_wOUCqk-90" edge="1">
          <mxGeometry width="50" height="50" relative="1" as="geometry">
            <mxPoint x="-390" y="1115" as="sourcePoint" />
            <mxPoint x="-460" y="1085" as="targetPoint" />
          </mxGeometry>
        </mxCell>
        <mxCell id="HbxGi6H0YP1Ia_wOUCqk-105" value="" style="endArrow=none;html=1;rounded=0;entryX=0.66;entryY=0.02;entryDx=0;entryDy=0;entryPerimeter=0;" parent="1" edge="1">
          <mxGeometry width="50" height="50" relative="1" as="geometry">
            <mxPoint x="-320" y="1105" as="sourcePoint" />
            <mxPoint x="-425" y="1175" as="targetPoint" />
          </mxGeometry>
        </mxCell>
        <mxCell id="HbxGi6H0YP1Ia_wOUCqk-106" value="" style="endArrow=none;html=1;rounded=0;entryX=0.66;entryY=0.02;entryDx=0;entryDy=0;entryPerimeter=0;" parent="1" edge="1">
          <mxGeometry width="50" height="50" relative="1" as="geometry">
            <mxPoint x="-320" y="1105" as="sourcePoint" />
            <mxPoint x="-230" y="1185" as="targetPoint" />
          </mxGeometry>
        </mxCell>
        <mxCell id="HbxGi6H0YP1Ia_wOUCqk-107" value="" style="endArrow=none;html=1;rounded=0;entryX=0.5;entryY=0;entryDx=0;entryDy=0;" parent="1" target="HbxGi6H0YP1Ia_wOUCqk-98" edge="1">
          <mxGeometry width="50" height="50" relative="1" as="geometry">
            <mxPoint x="-320" y="1105" as="sourcePoint" />
            <mxPoint x="-275.5519530207324" y="1186.4880861286572" as="targetPoint" />
          </mxGeometry>
        </mxCell>
        <mxCell id="HbxGi6H0YP1Ia_wOUCqk-108" value="&lt;font style=&quot;font-size: 18px;&quot; color=&quot;#ffffff&quot;&gt;Harga_Tiket&lt;/font&gt;" style="rounded=0;whiteSpace=wrap;html=1;labelBackgroundColor=none;fillColor=#fa6800;strokeColor=#C73500;fontColor=#000000;" parent="1" vertex="1">
          <mxGeometry x="-17" y="1025" width="150" height="80" as="geometry" />
        </mxCell>
        <mxCell id="HbxGi6H0YP1Ia_wOUCqk-109" value="id_jadwal" style="ellipse;whiteSpace=wrap;html=1;" parent="1" vertex="1">
          <mxGeometry x="-133" y="1205" width="100" height="60" as="geometry" />
        </mxCell>
        <mxCell id="HbxGi6H0YP1Ia_wOUCqk-110" value="id_harga" style="ellipse;whiteSpace=wrap;html=1;" parent="1" vertex="1">
          <mxGeometry x="-180" y="1140" width="100" height="60" as="geometry" />
        </mxCell>
        <mxCell id="HbxGi6H0YP1Ia_wOUCqk-111" value="kelas" style="ellipse;whiteSpace=wrap;html=1;" parent="1" vertex="1">
          <mxGeometry x="-33" y="1150" width="100" height="60" as="geometry" />
        </mxCell>
        <mxCell id="HbxGi6H0YP1Ia_wOUCqk-112" value="harga_dasar" style="ellipse;whiteSpace=wrap;html=1;" parent="1" vertex="1">
          <mxGeometry x="67" y="1200" width="100" height="60" as="geometry" />
        </mxCell>
        <mxCell id="HbxGi6H0YP1Ia_wOUCqk-113" value="tanggal_selesai" style="ellipse;whiteSpace=wrap;html=1;" parent="1" vertex="1">
          <mxGeometry x="167" y="1090" width="100" height="60" as="geometry" />
        </mxCell>
        <mxCell id="HbxGi6H0YP1Ia_wOUCqk-114" value="tanggal_mulai" style="ellipse;whiteSpace=wrap;html=1;" parent="1" vertex="1">
          <mxGeometry x="160" y="1160" width="100" height="60" as="geometry" />
        </mxCell>
        <mxCell id="HbxGi6H0YP1Ia_wOUCqk-115" value="" style="endArrow=none;html=1;rounded=0;entryX=0;entryY=0.75;entryDx=0;entryDy=0;exitX=1;exitY=0;exitDx=0;exitDy=0;" parent="1" source="HbxGi6H0YP1Ia_wOUCqk-110" target="HbxGi6H0YP1Ia_wOUCqk-108" edge="1">
          <mxGeometry width="50" height="50" relative="1" as="geometry">
            <mxPoint x="-43" y="1110" as="sourcePoint" />
            <mxPoint x="47" y="1190" as="targetPoint" />
          </mxGeometry>
        </mxCell>
        <mxCell id="HbxGi6H0YP1Ia_wOUCqk-117" value="" style="endArrow=none;html=1;rounded=0;entryX=0;entryY=0.75;entryDx=0;entryDy=0;exitX=0.791;exitY=0.098;exitDx=0;exitDy=0;exitPerimeter=0;" parent="1" source="HbxGi6H0YP1Ia_wOUCqk-109" target="HbxGi6H0YP1Ia_wOUCqk-108" edge="1">
          <mxGeometry width="50" height="50" relative="1" as="geometry">
            <mxPoint x="-78" y="1170" as="sourcePoint" />
            <mxPoint x="-33" y="1141" as="targetPoint" />
          </mxGeometry>
        </mxCell>
        <mxCell id="HbxGi6H0YP1Ia_wOUCqk-118" value="" style="endArrow=none;html=1;rounded=0;exitX=0.5;exitY=0;exitDx=0;exitDy=0;entryX=0.5;entryY=1;entryDx=0;entryDy=0;" parent="1" source="HbxGi6H0YP1Ia_wOUCqk-111" target="HbxGi6H0YP1Ia_wOUCqk-108" edge="1">
          <mxGeometry width="50" height="50" relative="1" as="geometry">
            <mxPoint x="11.5" y="1150" as="sourcePoint" />
            <mxPoint x="47" y="1100" as="targetPoint" />
          </mxGeometry>
        </mxCell>
        <mxCell id="HbxGi6H0YP1Ia_wOUCqk-119" value="" style="endArrow=none;html=1;rounded=0;exitX=0.5;exitY=0;exitDx=0;exitDy=0;entryX=0.5;entryY=1;entryDx=0;entryDy=0;" parent="1" target="HbxGi6H0YP1Ia_wOUCqk-108" edge="1">
          <mxGeometry width="50" height="50" relative="1" as="geometry">
            <mxPoint x="112" y="1200" as="sourcePoint" />
            <mxPoint x="142" y="1150" as="targetPoint" />
          </mxGeometry>
        </mxCell>
        <mxCell id="HbxGi6H0YP1Ia_wOUCqk-120" value="" style="endArrow=none;html=1;rounded=0;exitX=0;exitY=0;exitDx=0;exitDy=0;entryX=0.5;entryY=1;entryDx=0;entryDy=0;" parent="1" source="HbxGi6H0YP1Ia_wOUCqk-114" target="HbxGi6H0YP1Ia_wOUCqk-108" edge="1">
          <mxGeometry width="50" height="50" relative="1" as="geometry">
            <mxPoint x="167" y="1180" as="sourcePoint" />
            <mxPoint x="117" y="1080" as="targetPoint" />
          </mxGeometry>
        </mxCell>
        <mxCell id="HbxGi6H0YP1Ia_wOUCqk-121" value="" style="endArrow=none;html=1;rounded=0;exitX=0;exitY=0;exitDx=0;exitDy=0;entryX=1;entryY=0.5;entryDx=0;entryDy=0;" parent="1" source="HbxGi6H0YP1Ia_wOUCqk-113" target="HbxGi6H0YP1Ia_wOUCqk-108" edge="1">
          <mxGeometry width="50" height="50" relative="1" as="geometry">
            <mxPoint x="177" y="1100" as="sourcePoint" />
            <mxPoint x="72" y="1020" as="targetPoint" />
          </mxGeometry>
        </mxCell>
        <mxCell id="HbxGi6H0YP1Ia_wOUCqk-122" value="&lt;font style=&quot;font-size: 18px;&quot; color=&quot;#ffffff&quot;&gt;Penumpang&lt;/font&gt;" style="rounded=0;whiteSpace=wrap;html=1;labelBackgroundColor=none;fillColor=#fa6800;strokeColor=#C73500;fontColor=#000000;" parent="1" vertex="1">
          <mxGeometry x="515" y="1020" width="150" height="80" as="geometry" />
        </mxCell>
        <mxCell id="HbxGi6H0YP1Ia_wOUCqk-123" value="id_penumpang" style="ellipse;whiteSpace=wrap;html=1;" parent="1" vertex="1">
          <mxGeometry x="430" y="960" width="100" height="60" as="geometry" />
        </mxCell>
        <mxCell id="HbxGi6H0YP1Ia_wOUCqk-124" value="nama_depan" style="ellipse;whiteSpace=wrap;html=1;" parent="1" vertex="1">
          <mxGeometry x="330" y="930" width="100" height="60" as="geometry" />
        </mxCell>
        <mxCell id="HbxGi6H0YP1Ia_wOUCqk-125" value="nama_belakang" style="ellipse;whiteSpace=wrap;html=1;" parent="1" vertex="1">
          <mxGeometry x="267" y="1000" width="100" height="60" as="geometry" />
        </mxCell>
        <mxCell id="HbxGi6H0YP1Ia_wOUCqk-126" value="jenis_kelamin" style="ellipse;whiteSpace=wrap;html=1;" parent="1" vertex="1">
          <mxGeometry x="320" y="1060" width="100" height="60" as="geometry" />
        </mxCell>
        <mxCell id="HbxGi6H0YP1Ia_wOUCqk-127" value="nomor_paspor" style="ellipse;whiteSpace=wrap;html=1;" parent="1" vertex="1">
          <mxGeometry x="330" y="1210" width="100" height="60" as="geometry" />
        </mxCell>
        <mxCell id="HbxGi6H0YP1Ia_wOUCqk-128" value="tanggal_expired_paspor" style="ellipse;whiteSpace=wrap;html=1;" parent="1" vertex="1">
          <mxGeometry x="520" y="1220" width="140" height="60" as="geometry" />
        </mxCell>
        <mxCell id="HbxGi6H0YP1Ia_wOUCqk-130" value="tanggal_registrasi" style="ellipse;whiteSpace=wrap;html=1;" parent="1" vertex="1">
          <mxGeometry x="650" y="960" width="110" height="60" as="geometry" />
        </mxCell>
        <mxCell id="HbxGi6H0YP1Ia_wOUCqk-131" value="kode_pos" style="ellipse;whiteSpace=wrap;html=1;" parent="1" vertex="1">
          <mxGeometry x="780" y="960" width="100" height="60" as="geometry" />
        </mxCell>
        <mxCell id="HbxGi6H0YP1Ia_wOUCqk-132" value="tanggal_lahir" style="ellipse;whiteSpace=wrap;html=1;" parent="1" vertex="1">
          <mxGeometry x="282" y="1140" width="100" height="60" as="geometry" />
        </mxCell>
        <mxCell id="HbxGi6H0YP1Ia_wOUCqk-133" value="email" style="ellipse;whiteSpace=wrap;html=1;" parent="1" vertex="1">
          <mxGeometry x="620" y="1150" width="100" height="60" as="geometry" />
        </mxCell>
        <mxCell id="HbxGi6H0YP1Ia_wOUCqk-135" value="negara_paspor" style="ellipse;whiteSpace=wrap;html=1;" parent="1" vertex="1">
          <mxGeometry x="430" y="1150" width="110" height="60" as="geometry" />
        </mxCell>
        <mxCell id="HbxGi6H0YP1Ia_wOUCqk-136" value="negara" style="ellipse;whiteSpace=wrap;html=1;" parent="1" vertex="1">
          <mxGeometry x="740" y="1030" width="100" height="60" as="geometry" />
        </mxCell>
        <mxCell id="HbxGi6H0YP1Ia_wOUCqk-137" value="telepon" style="ellipse;whiteSpace=wrap;html=1;" parent="1" vertex="1">
          <mxGeometry x="710" y="1220" width="100" height="60" as="geometry" />
        </mxCell>
        <mxCell id="HbxGi6H0YP1Ia_wOUCqk-138" value="alamat" style="ellipse;whiteSpace=wrap;html=1;" parent="1" vertex="1">
          <mxGeometry x="770" y="1160" width="100" height="60" as="geometry" />
        </mxCell>
        <mxCell id="HbxGi6H0YP1Ia_wOUCqk-139" value="kota" style="ellipse;whiteSpace=wrap;html=1;" parent="1" vertex="1">
          <mxGeometry x="820" y="1090" width="100" height="60" as="geometry" />
        </mxCell>
        <mxCell id="HbxGi6H0YP1Ia_wOUCqk-140" value="" style="endArrow=none;html=1;rounded=0;entryX=0.25;entryY=0;entryDx=0;entryDy=0;" parent="1" target="HbxGi6H0YP1Ia_wOUCqk-122" edge="1">
          <mxGeometry width="50" height="50" relative="1" as="geometry">
            <mxPoint x="530" y="995" as="sourcePoint" />
            <mxPoint x="580" y="945" as="targetPoint" />
          </mxGeometry>
        </mxCell>
        <mxCell id="HbxGi6H0YP1Ia_wOUCqk-141" value="" style="endArrow=none;html=1;rounded=0;entryX=0.5;entryY=0;entryDx=0;entryDy=0;exitX=0.75;exitY=0;exitDx=0;exitDy=0;" parent="1" source="HbxGi6H0YP1Ia_wOUCqk-122" edge="1">
          <mxGeometry width="50" height="50" relative="1" as="geometry">
            <mxPoint x="590" y="1020" as="sourcePoint" />
            <mxPoint x="650" y="990" as="targetPoint" />
          </mxGeometry>
        </mxCell>
        <mxCell id="HbxGi6H0YP1Ia_wOUCqk-142" value="" style="endArrow=none;html=1;rounded=0;entryX=0;entryY=0.5;entryDx=0;entryDy=0;exitX=0.5;exitY=1;exitDx=0;exitDy=0;" parent="1" source="HbxGi6H0YP1Ia_wOUCqk-124" target="HbxGi6H0YP1Ia_wOUCqk-122" edge="1">
          <mxGeometry width="50" height="50" relative="1" as="geometry">
            <mxPoint x="410" y="980" as="sourcePoint" />
            <mxPoint x="510" y="1060" as="targetPoint" />
          </mxGeometry>
        </mxCell>
        <mxCell id="HbxGi6H0YP1Ia_wOUCqk-143" value="" style="endArrow=none;html=1;rounded=0;entryX=0;entryY=0.5;entryDx=0;entryDy=0;" parent="1" target="HbxGi6H0YP1Ia_wOUCqk-122" edge="1">
          <mxGeometry width="50" height="50" relative="1" as="geometry">
            <mxPoint x="367" y="1030" as="sourcePoint" />
            <mxPoint x="510" y="1060" as="targetPoint" />
          </mxGeometry>
        </mxCell>
        <mxCell id="HbxGi6H0YP1Ia_wOUCqk-144" value="" style="endArrow=none;html=1;rounded=0;entryX=0;entryY=0.5;entryDx=0;entryDy=0;exitX=1;exitY=0.5;exitDx=0;exitDy=0;" parent="1" source="HbxGi6H0YP1Ia_wOUCqk-126" target="HbxGi6H0YP1Ia_wOUCqk-122" edge="1">
          <mxGeometry width="50" height="50" relative="1" as="geometry">
            <mxPoint x="430" y="1100" as="sourcePoint" />
            <mxPoint x="573" y="1130" as="targetPoint" />
          </mxGeometry>
        </mxCell>
        <mxCell id="HbxGi6H0YP1Ia_wOUCqk-145" style="edgeStyle=none;rounded=0;orthogonalLoop=1;jettySize=auto;html=1;entryX=0;entryY=0.5;entryDx=0;entryDy=0;" parent="1" source="HbxGi6H0YP1Ia_wOUCqk-122" target="HbxGi6H0YP1Ia_wOUCqk-122" edge="1">
          <mxGeometry relative="1" as="geometry" />
        </mxCell>
        <mxCell id="HbxGi6H0YP1Ia_wOUCqk-146" value="" style="endArrow=none;html=1;rounded=0;exitX=1;exitY=0;exitDx=0;exitDy=0;entryX=0;entryY=0.5;entryDx=0;entryDy=0;" parent="1" source="HbxGi6H0YP1Ia_wOUCqk-132" target="HbxGi6H0YP1Ia_wOUCqk-122" edge="1">
          <mxGeometry width="50" height="50" relative="1" as="geometry">
            <mxPoint x="382" y="1160" as="sourcePoint" />
            <mxPoint x="510" y="1060" as="targetPoint" />
          </mxGeometry>
        </mxCell>
        <mxCell id="HbxGi6H0YP1Ia_wOUCqk-147" value="" style="endArrow=none;html=1;rounded=0;exitX=0.5;exitY=0;exitDx=0;exitDy=0;entryX=0;entryY=0.5;entryDx=0;entryDy=0;" parent="1" source="HbxGi6H0YP1Ia_wOUCqk-127" target="HbxGi6H0YP1Ia_wOUCqk-122" edge="1">
          <mxGeometry width="50" height="50" relative="1" as="geometry">
            <mxPoint x="382" y="1189" as="sourcePoint" />
            <mxPoint x="530" y="1100" as="targetPoint" />
          </mxGeometry>
        </mxCell>
        <mxCell id="HbxGi6H0YP1Ia_wOUCqk-148" value="" style="endArrow=none;html=1;rounded=0;exitX=0.5;exitY=0;exitDx=0;exitDy=0;entryX=0.5;entryY=1;entryDx=0;entryDy=0;" parent="1" source="HbxGi6H0YP1Ia_wOUCqk-135" target="HbxGi6H0YP1Ia_wOUCqk-122" edge="1">
          <mxGeometry width="50" height="50" relative="1" as="geometry">
            <mxPoint x="495" y="1150" as="sourcePoint" />
            <mxPoint x="630" y="1000" as="targetPoint" />
          </mxGeometry>
        </mxCell>
        <mxCell id="HbxGi6H0YP1Ia_wOUCqk-149" value="" style="endArrow=none;html=1;rounded=0;exitX=0.5;exitY=0;exitDx=0;exitDy=0;entryX=0.5;entryY=1;entryDx=0;entryDy=0;" parent="1" source="HbxGi6H0YP1Ia_wOUCqk-128" target="HbxGi6H0YP1Ia_wOUCqk-122" edge="1">
          <mxGeometry width="50" height="50" relative="1" as="geometry">
            <mxPoint x="545" y="1170" as="sourcePoint" />
            <mxPoint x="650" y="1120" as="targetPoint" />
          </mxGeometry>
        </mxCell>
        <mxCell id="HbxGi6H0YP1Ia_wOUCqk-150" value="" style="endArrow=none;html=1;rounded=0;exitX=0.5;exitY=0;exitDx=0;exitDy=0;entryX=0.5;entryY=1;entryDx=0;entryDy=0;" parent="1" source="HbxGi6H0YP1Ia_wOUCqk-133" target="HbxGi6H0YP1Ia_wOUCqk-122" edge="1">
          <mxGeometry width="50" height="50" relative="1" as="geometry">
            <mxPoint x="590" y="1220" as="sourcePoint" />
            <mxPoint x="600" y="1110" as="targetPoint" />
          </mxGeometry>
        </mxCell>
        <mxCell id="HbxGi6H0YP1Ia_wOUCqk-151" value="" style="endArrow=none;html=1;rounded=0;exitX=0.5;exitY=0;exitDx=0;exitDy=0;entryX=1;entryY=0.5;entryDx=0;entryDy=0;" parent="1" source="HbxGi6H0YP1Ia_wOUCqk-137" target="HbxGi6H0YP1Ia_wOUCqk-122" edge="1">
          <mxGeometry width="50" height="50" relative="1" as="geometry">
            <mxPoint x="760" y="1180" as="sourcePoint" />
            <mxPoint x="680" y="1130" as="targetPoint" />
          </mxGeometry>
        </mxCell>
        <mxCell id="HbxGi6H0YP1Ia_wOUCqk-152" value="" style="endArrow=none;html=1;rounded=0;exitX=0;exitY=0;exitDx=0;exitDy=0;entryX=1;entryY=0.5;entryDx=0;entryDy=0;" parent="1" source="HbxGi6H0YP1Ia_wOUCqk-138" target="HbxGi6H0YP1Ia_wOUCqk-122" edge="1">
          <mxGeometry width="50" height="50" relative="1" as="geometry">
            <mxPoint x="780" y="1190" as="sourcePoint" />
            <mxPoint x="685" y="1030" as="targetPoint" />
          </mxGeometry>
        </mxCell>
        <mxCell id="HbxGi6H0YP1Ia_wOUCqk-153" value="" style="endArrow=none;html=1;rounded=0;exitX=0;exitY=0.5;exitDx=0;exitDy=0;entryX=1;entryY=0.5;entryDx=0;entryDy=0;" parent="1" source="HbxGi6H0YP1Ia_wOUCqk-139" target="HbxGi6H0YP1Ia_wOUCqk-122" edge="1">
          <mxGeometry width="50" height="50" relative="1" as="geometry">
            <mxPoint x="820" y="1150" as="sourcePoint" />
            <mxPoint x="660" y="1060" as="targetPoint" />
          </mxGeometry>
        </mxCell>
        <mxCell id="HbxGi6H0YP1Ia_wOUCqk-154" value="" style="endArrow=none;html=1;rounded=0;exitX=0;exitY=0.5;exitDx=0;exitDy=0;entryX=1;entryY=0.5;entryDx=0;entryDy=0;" parent="1" source="HbxGi6H0YP1Ia_wOUCqk-136" target="HbxGi6H0YP1Ia_wOUCqk-122" edge="1">
          <mxGeometry width="50" height="50" relative="1" as="geometry">
            <mxPoint x="745" y="1060" as="sourcePoint" />
            <mxPoint x="595" y="1000" as="targetPoint" />
          </mxGeometry>
        </mxCell>
        <mxCell id="HbxGi6H0YP1Ia_wOUCqk-155" value="" style="endArrow=none;html=1;rounded=0;exitX=0;exitY=1;exitDx=0;exitDy=0;entryX=1;entryY=0.5;entryDx=0;entryDy=0;" parent="1" source="HbxGi6H0YP1Ia_wOUCqk-131" target="HbxGi6H0YP1Ia_wOUCqk-122" edge="1">
          <mxGeometry width="50" height="50" relative="1" as="geometry">
            <mxPoint x="750" y="1032" as="sourcePoint" />
            <mxPoint x="678" y="1030" as="targetPoint" />
          </mxGeometry>
        </mxCell>
        <mxCell id="HbxGi6H0YP1Ia_wOUCqk-156" value="&lt;font style=&quot;font-size: 18px;&quot; color=&quot;#ffffff&quot;&gt;Pemesanan&lt;/font&gt;" style="rounded=0;whiteSpace=wrap;html=1;labelBackgroundColor=none;fillColor=#fa6800;strokeColor=#C73500;fontColor=#000000;" parent="1" vertex="1">
          <mxGeometry x="1050" y="1020" width="150" height="80" as="geometry" />
        </mxCell>
        <mxCell id="HbxGi6H0YP1Ia_wOUCqk-157" value="kode_booking" style="ellipse;whiteSpace=wrap;html=1;" parent="1" vertex="1">
          <mxGeometry x="1170" y="890" width="100" height="60" as="geometry" />
        </mxCell>
        <mxCell id="HbxGi6H0YP1Ia_wOUCqk-158" value="id_pemesanan" style="ellipse;whiteSpace=wrap;html=1;" parent="1" vertex="1">
          <mxGeometry x="890" y="1000" width="100" height="60" as="geometry" />
        </mxCell>
        <mxCell id="HbxGi6H0YP1Ia_wOUCqk-159" value="nomor_pemesanan" style="ellipse;whiteSpace=wrap;html=1;" parent="1" vertex="1">
          <mxGeometry x="930" y="1070" width="110" height="60" as="geometry" />
        </mxCell>
        <mxCell id="HbxGi6H0YP1Ia_wOUCqk-160" value="id_penerbangan" style="ellipse;whiteSpace=wrap;html=1;" parent="1" vertex="1">
          <mxGeometry x="900" y="1150" width="100" height="60" as="geometry" />
        </mxCell>
        <mxCell id="HbxGi6H0YP1Ia_wOUCqk-161" value="id_penumpang" style="ellipse;whiteSpace=wrap;html=1;" parent="1" vertex="1">
          <mxGeometry x="1000" y="1190" width="100" height="60" as="geometry" />
        </mxCell>
        <mxCell id="HbxGi6H0YP1Ia_wOUCqk-162" value="kelas" style="ellipse;whiteSpace=wrap;html=1;" parent="1" vertex="1">
          <mxGeometry x="1080" y="1140" width="100" height="60" as="geometry" />
        </mxCell>
        <mxCell id="HbxGi6H0YP1Ia_wOUCqk-163" value="tanggal_pemesanan" style="ellipse;whiteSpace=wrap;html=1;" parent="1" vertex="1">
          <mxGeometry x="1170" y="1190" width="120" height="60" as="geometry" />
        </mxCell>
        <mxCell id="HbxGi6H0YP1Ia_wOUCqk-164" value="status_pemesanan" style="ellipse;whiteSpace=wrap;html=1;" parent="1" vertex="1">
          <mxGeometry x="1220" y="1120" width="110" height="60" as="geometry" />
        </mxCell>
        <mxCell id="HbxGi6H0YP1Ia_wOUCqk-165" value="harga_total" style="ellipse;whiteSpace=wrap;html=1;" parent="1" vertex="1">
          <mxGeometry x="1260" y="1040" width="100" height="60" as="geometry" />
        </mxCell>
        <mxCell id="HbxGi6H0YP1Ia_wOUCqk-166" value="nomor_kursi" style="ellipse;whiteSpace=wrap;html=1;" parent="1" vertex="1">
          <mxGeometry x="1220" y="970" width="100" height="60" as="geometry" />
        </mxCell>
        <mxCell id="HbxGi6H0YP1Ia_wOUCqk-167" value="" style="endArrow=none;html=1;rounded=0;entryX=0.5;entryY=0;entryDx=0;entryDy=0;exitX=0.5;exitY=1;exitDx=0;exitDy=0;" parent="1" source="HbxGi6H0YP1Ia_wOUCqk-157" target="HbxGi6H0YP1Ia_wOUCqk-156" edge="1">
          <mxGeometry width="50" height="50" relative="1" as="geometry">
            <mxPoint x="1060" y="960" as="sourcePoint" />
            <mxPoint x="1060" y="1020" as="targetPoint" />
          </mxGeometry>
        </mxCell>
        <mxCell id="HbxGi6H0YP1Ia_wOUCqk-168" value="" style="endArrow=none;html=1;rounded=0;entryX=0;entryY=0.5;entryDx=0;entryDy=0;exitX=1;exitY=0.5;exitDx=0;exitDy=0;" parent="1" source="HbxGi6H0YP1Ia_wOUCqk-158" target="HbxGi6H0YP1Ia_wOUCqk-156" edge="1">
          <mxGeometry width="50" height="50" relative="1" as="geometry">
            <mxPoint x="1030" y="1000" as="sourcePoint" />
            <mxPoint x="1109" y="1039" as="targetPoint" />
          </mxGeometry>
        </mxCell>
        <mxCell id="HbxGi6H0YP1Ia_wOUCqk-169" value="" style="endArrow=none;html=1;rounded=0;entryX=0;entryY=0.5;entryDx=0;entryDy=0;exitX=0.5;exitY=0;exitDx=0;exitDy=0;" parent="1" source="HbxGi6H0YP1Ia_wOUCqk-159" target="HbxGi6H0YP1Ia_wOUCqk-156" edge="1">
          <mxGeometry width="50" height="50" relative="1" as="geometry">
            <mxPoint x="1000" y="1040" as="sourcePoint" />
            <mxPoint x="1060" y="1070" as="targetPoint" />
          </mxGeometry>
        </mxCell>
        <mxCell id="HbxGi6H0YP1Ia_wOUCqk-170" value="" style="endArrow=none;html=1;rounded=0;entryX=0.25;entryY=1;entryDx=0;entryDy=0;exitX=1;exitY=0;exitDx=0;exitDy=0;" parent="1" source="HbxGi6H0YP1Ia_wOUCqk-160" target="HbxGi6H0YP1Ia_wOUCqk-156" edge="1">
          <mxGeometry width="50" height="50" relative="1" as="geometry">
            <mxPoint x="1010" y="1140" as="sourcePoint" />
            <mxPoint x="1070" y="1130" as="targetPoint" />
          </mxGeometry>
        </mxCell>
        <mxCell id="HbxGi6H0YP1Ia_wOUCqk-171" value="" style="endArrow=none;html=1;rounded=0;exitX=0.5;exitY=0;exitDx=0;exitDy=0;entryX=0.25;entryY=1;entryDx=0;entryDy=0;" parent="1" source="HbxGi6H0YP1Ia_wOUCqk-161" target="HbxGi6H0YP1Ia_wOUCqk-156" edge="1">
          <mxGeometry width="50" height="50" relative="1" as="geometry">
            <mxPoint x="1040" y="1190" as="sourcePoint" />
            <mxPoint x="1090" y="1110" as="targetPoint" />
          </mxGeometry>
        </mxCell>
        <mxCell id="HbxGi6H0YP1Ia_wOUCqk-172" value="" style="endArrow=none;html=1;rounded=0;exitX=0.5;exitY=0;exitDx=0;exitDy=0;entryX=0.25;entryY=1;entryDx=0;entryDy=0;" parent="1" source="HbxGi6H0YP1Ia_wOUCqk-162" target="HbxGi6H0YP1Ia_wOUCqk-156" edge="1">
          <mxGeometry width="50" height="50" relative="1" as="geometry">
            <mxPoint x="1142" y="1160" as="sourcePoint" />
            <mxPoint x="1180" y="1070" as="targetPoint" />
          </mxGeometry>
        </mxCell>
        <mxCell id="HbxGi6H0YP1Ia_wOUCqk-173" value="" style="endArrow=none;html=1;rounded=0;exitX=0.5;exitY=0;exitDx=0;exitDy=0;entryX=0.75;entryY=1;entryDx=0;entryDy=0;" parent="1" source="HbxGi6H0YP1Ia_wOUCqk-163" target="HbxGi6H0YP1Ia_wOUCqk-156" edge="1">
          <mxGeometry width="50" height="50" relative="1" as="geometry">
            <mxPoint x="1212" y="1160" as="sourcePoint" />
            <mxPoint x="1170" y="1120" as="targetPoint" />
          </mxGeometry>
        </mxCell>
        <mxCell id="HbxGi6H0YP1Ia_wOUCqk-174" value="" style="endArrow=none;html=1;rounded=0;exitX=0;exitY=0;exitDx=0;exitDy=0;entryX=0.75;entryY=1;entryDx=0;entryDy=0;" parent="1" source="HbxGi6H0YP1Ia_wOUCqk-164" target="HbxGi6H0YP1Ia_wOUCqk-156" edge="1">
          <mxGeometry width="50" height="50" relative="1" as="geometry">
            <mxPoint x="1230" y="1155" as="sourcePoint" />
            <mxPoint x="1172" y="1065" as="targetPoint" />
          </mxGeometry>
        </mxCell>
        <mxCell id="HbxGi6H0YP1Ia_wOUCqk-175" value="" style="endArrow=none;html=1;rounded=0;exitX=0;exitY=0.5;exitDx=0;exitDy=0;" parent="1" source="HbxGi6H0YP1Ia_wOUCqk-165" edge="1">
          <mxGeometry width="50" height="50" relative="1" as="geometry">
            <mxPoint x="1253" y="1089" as="sourcePoint" />
            <mxPoint x="1200" y="1060" as="targetPoint" />
          </mxGeometry>
        </mxCell>
        <mxCell id="HbxGi6H0YP1Ia_wOUCqk-176" value="" style="endArrow=none;html=1;rounded=0;exitX=0;exitY=1;exitDx=0;exitDy=0;entryX=1;entryY=0.5;entryDx=0;entryDy=0;" parent="1" source="HbxGi6H0YP1Ia_wOUCqk-166" target="HbxGi6H0YP1Ia_wOUCqk-156" edge="1">
          <mxGeometry width="50" height="50" relative="1" as="geometry">
            <mxPoint x="1240" y="1050" as="sourcePoint" />
            <mxPoint x="1180" y="1040" as="targetPoint" />
          </mxGeometry>
        </mxCell>
        <mxCell id="HbxGi6H0YP1Ia_wOUCqk-177" value="&lt;font style=&quot;font-size: 18px;&quot; color=&quot;#ffffff&quot;&gt;Pembayaran&lt;/font&gt;" style="rounded=0;whiteSpace=wrap;html=1;labelBackgroundColor=none;fillColor=#fa6800;strokeColor=#C73500;fontColor=#000000;" parent="1" vertex="1">
          <mxGeometry x="1210" y="660" width="150" height="80" as="geometry" />
        </mxCell>
        <mxCell id="HbxGi6H0YP1Ia_wOUCqk-178" value="status_pembayaran" style="ellipse;whiteSpace=wrap;html=1;" parent="1" vertex="1">
          <mxGeometry x="1210" y="570" width="110" height="60" as="geometry" />
        </mxCell>
        <mxCell id="HbxGi6H0YP1Ia_wOUCqk-179" value="tanggal_pembayaran" style="ellipse;whiteSpace=wrap;html=1;" parent="1" vertex="1">
          <mxGeometry x="1280" y="500" width="130" height="60" as="geometry" />
        </mxCell>
        <mxCell id="HbxGi6H0YP1Ia_wOUCqk-180" value="nomor_referensi" style="ellipse;whiteSpace=wrap;html=1;" parent="1" vertex="1">
          <mxGeometry x="1340" y="570" width="100" height="60" as="geometry" />
        </mxCell>
        <mxCell id="HbxGi6H0YP1Ia_wOUCqk-181" value="metode_pembayaran" style="ellipse;whiteSpace=wrap;html=1;" parent="1" vertex="1">
          <mxGeometry x="1410" y="640" width="130" height="60" as="geometry" />
        </mxCell>
        <mxCell id="HbxGi6H0YP1Ia_wOUCqk-182" value="Jumlah_pembayaran" style="ellipse;whiteSpace=wrap;html=1;" parent="1" vertex="1">
          <mxGeometry x="1380" y="710" width="130" height="60" as="geometry" />
        </mxCell>
        <mxCell id="HbxGi6H0YP1Ia_wOUCqk-183" value="id_pemesanan" style="ellipse;whiteSpace=wrap;html=1;" parent="1" vertex="1">
          <mxGeometry x="1320" y="790" width="100" height="60" as="geometry" />
        </mxCell>
        <mxCell id="HbxGi6H0YP1Ia_wOUCqk-184" value="id_pembayaran" style="ellipse;whiteSpace=wrap;html=1;" parent="1" vertex="1">
          <mxGeometry x="1220" y="760" width="100" height="60" as="geometry" />
        </mxCell>
        <mxCell id="HbxGi6H0YP1Ia_wOUCqk-185" value="" style="endArrow=none;html=1;rounded=0;entryX=1;entryY=1;entryDx=0;entryDy=0;exitX=0.75;exitY=0;exitDx=0;exitDy=0;" parent="1" source="HbxGi6H0YP1Ia_wOUCqk-177" target="HbxGi6H0YP1Ia_wOUCqk-178" edge="1">
          <mxGeometry width="50" height="50" relative="1" as="geometry">
            <mxPoint x="1120" y="540" as="sourcePoint" />
            <mxPoint x="1180" y="580" as="targetPoint" />
          </mxGeometry>
        </mxCell>
        <mxCell id="HbxGi6H0YP1Ia_wOUCqk-186" value="" style="endArrow=none;html=1;rounded=0;entryX=0.5;entryY=1;entryDx=0;entryDy=0;exitX=0.75;exitY=0;exitDx=0;exitDy=0;" parent="1" source="HbxGi6H0YP1Ia_wOUCqk-177" target="HbxGi6H0YP1Ia_wOUCqk-179" edge="1">
          <mxGeometry width="50" height="50" relative="1" as="geometry">
            <mxPoint x="1295" y="670" as="sourcePoint" />
            <mxPoint x="1280" y="640" as="targetPoint" />
          </mxGeometry>
        </mxCell>
        <mxCell id="HbxGi6H0YP1Ia_wOUCqk-187" value="" style="endArrow=none;html=1;rounded=0;entryX=0.5;entryY=1;entryDx=0;entryDy=0;exitX=0.75;exitY=0;exitDx=0;exitDy=0;" parent="1" source="HbxGi6H0YP1Ia_wOUCqk-177" target="HbxGi6H0YP1Ia_wOUCqk-180" edge="1">
          <mxGeometry width="50" height="50" relative="1" as="geometry">
            <mxPoint x="1333" y="670" as="sourcePoint" />
            <mxPoint x="1340" y="570" as="targetPoint" />
          </mxGeometry>
        </mxCell>
        <mxCell id="HbxGi6H0YP1Ia_wOUCqk-188" value="" style="endArrow=none;html=1;rounded=0;entryX=0;entryY=0.5;entryDx=0;entryDy=0;exitX=1;exitY=0.5;exitDx=0;exitDy=0;" parent="1" source="HbxGi6H0YP1Ia_wOUCqk-177" target="HbxGi6H0YP1Ia_wOUCqk-181" edge="1">
          <mxGeometry width="50" height="50" relative="1" as="geometry">
            <mxPoint x="1333" y="670" as="sourcePoint" />
            <mxPoint x="1400" y="640" as="targetPoint" />
          </mxGeometry>
        </mxCell>
        <mxCell id="HbxGi6H0YP1Ia_wOUCqk-189" value="" style="endArrow=none;html=1;rounded=0;entryX=0;entryY=0;entryDx=0;entryDy=0;exitX=1;exitY=0.5;exitDx=0;exitDy=0;" parent="1" source="HbxGi6H0YP1Ia_wOUCqk-177" target="HbxGi6H0YP1Ia_wOUCqk-182" edge="1">
          <mxGeometry width="50" height="50" relative="1" as="geometry">
            <mxPoint x="1370" y="710" as="sourcePoint" />
            <mxPoint x="1420" y="680" as="targetPoint" />
          </mxGeometry>
        </mxCell>
        <mxCell id="HbxGi6H0YP1Ia_wOUCqk-190" value="" style="endArrow=none;html=1;rounded=0;entryX=0.5;entryY=0;entryDx=0;entryDy=0;exitX=0.5;exitY=1;exitDx=0;exitDy=0;" parent="1" source="HbxGi6H0YP1Ia_wOUCqk-177" target="HbxGi6H0YP1Ia_wOUCqk-183" edge="1">
          <mxGeometry width="50" height="50" relative="1" as="geometry">
            <mxPoint x="1370" y="710" as="sourcePoint" />
            <mxPoint x="1405" y="729" as="targetPoint" />
          </mxGeometry>
        </mxCell>
        <mxCell id="HbxGi6H0YP1Ia_wOUCqk-191" value="" style="endArrow=none;html=1;rounded=0;entryX=0.5;entryY=0;entryDx=0;entryDy=0;exitX=0.5;exitY=1;exitDx=0;exitDy=0;" parent="1" source="HbxGi6H0YP1Ia_wOUCqk-177" target="HbxGi6H0YP1Ia_wOUCqk-184" edge="1">
          <mxGeometry width="50" height="50" relative="1" as="geometry">
            <mxPoint x="1295" y="750" as="sourcePoint" />
            <mxPoint x="1380" y="800" as="targetPoint" />
          </mxGeometry>
        </mxCell>
        <mxCell id="HbxGi6H0YP1Ia_wOUCqk-192" style="edgeStyle=none;rounded=0;orthogonalLoop=1;jettySize=auto;html=1;entryX=0;entryY=0.5;entryDx=0;entryDy=0;" parent="1" source="HbxGi6H0YP1Ia_wOUCqk-53" target="HbxGi6H0YP1Ia_wOUCqk-53" edge="1">
          <mxGeometry relative="1" as="geometry" />
        </mxCell>
        <mxCell id="1AR1Cco3kjqSS6mcWAjd-42" value="Memiliki" style="rhombus;whiteSpace=wrap;html=1;" vertex="1" parent="1">
          <mxGeometry x="-168" y="560" width="170" height="80" as="geometry" />
        </mxCell>
        <mxCell id="1AR1Cco3kjqSS6mcWAjd-43" value="Memiliki" style="rhombus;whiteSpace=wrap;html=1;" vertex="1" parent="1">
          <mxGeometry x="210" y="560" width="170" height="80" as="geometry" />
        </mxCell>
        <mxCell id="1AR1Cco3kjqSS6mcWAjd-44" value="Memiliki" style="rhombus;whiteSpace=wrap;html=1;" vertex="1" parent="1">
          <mxGeometry x="735" y="560" width="170" height="80" as="geometry" />
        </mxCell>
        <mxCell id="1AR1Cco3kjqSS6mcWAjd-45" value="Memiliki" style="rhombus;whiteSpace=wrap;html=1;" vertex="1" parent="1">
          <mxGeometry x="-168" y="875" width="170" height="80" as="geometry" />
        </mxCell>
        <mxCell id="1AR1Cco3kjqSS6mcWAjd-46" value="" style="endArrow=none;html=1;rounded=0;entryX=1;entryY=0.5;entryDx=0;entryDy=0;exitX=0;exitY=0.5;exitDx=0;exitDy=0;" edge="1" parent="1" source="1AR1Cco3kjqSS6mcWAjd-42" target="HbxGi6H0YP1Ia_wOUCqk-3">
          <mxGeometry width="50" height="50" relative="1" as="geometry">
            <mxPoint x="350" y="630" as="sourcePoint" />
            <mxPoint x="400" y="580" as="targetPoint" />
          </mxGeometry>
        </mxCell>
        <mxCell id="1AR1Cco3kjqSS6mcWAjd-47" value="" style="endArrow=none;html=1;rounded=0;entryX=1;entryY=0.5;entryDx=0;entryDy=0;exitX=0.5;exitY=1;exitDx=0;exitDy=0;" edge="1" parent="1" source="HbxGi6H0YP1Ia_wOUCqk-32" target="1AR1Cco3kjqSS6mcWAjd-42">
          <mxGeometry width="50" height="50" relative="1" as="geometry">
            <mxPoint x="-64" y="770" as="sourcePoint" />
            <mxPoint x="-210" y="600" as="targetPoint" />
          </mxGeometry>
        </mxCell>
        <mxCell id="1AR1Cco3kjqSS6mcWAjd-48" value="" style="endArrow=none;html=1;rounded=0;entryX=1;entryY=0.5;entryDx=0;entryDy=0;exitX=0;exitY=0.5;exitDx=0;exitDy=0;" edge="1" parent="1" source="1AR1Cco3kjqSS6mcWAjd-44" target="HbxGi6H0YP1Ia_wOUCqk-65">
          <mxGeometry width="50" height="50" relative="1" as="geometry">
            <mxPoint x="-158" y="610" as="sourcePoint" />
            <mxPoint x="-230" y="370" as="targetPoint" />
          </mxGeometry>
        </mxCell>
        <mxCell id="1AR1Cco3kjqSS6mcWAjd-49" value="" style="endArrow=none;html=1;rounded=0;entryX=0.5;entryY=1;entryDx=0;entryDy=0;exitX=1;exitY=0.5;exitDx=0;exitDy=0;" edge="1" parent="1" source="1AR1Cco3kjqSS6mcWAjd-44" target="HbxGi6H0YP1Ia_wOUCqk-46">
          <mxGeometry width="50" height="50" relative="1" as="geometry">
            <mxPoint x="860" y="620" as="sourcePoint" />
            <mxPoint x="725" y="380" as="targetPoint" />
          </mxGeometry>
        </mxCell>
        <mxCell id="1AR1Cco3kjqSS6mcWAjd-50" value="" style="endArrow=none;html=1;rounded=0;entryX=1;entryY=0.5;entryDx=0;entryDy=0;exitX=0.5;exitY=1;exitDx=0;exitDy=0;" edge="1" parent="1" source="HbxGi6H0YP1Ia_wOUCqk-65" target="1AR1Cco3kjqSS6mcWAjd-43">
          <mxGeometry width="50" height="50" relative="1" as="geometry">
            <mxPoint x="255" y="420" as="sourcePoint" />
            <mxPoint x="167" y="620" as="targetPoint" />
          </mxGeometry>
        </mxCell>
        <mxCell id="1AR1Cco3kjqSS6mcWAjd-51" value="" style="endArrow=none;html=1;rounded=0;entryX=1;entryY=0.5;entryDx=0;entryDy=0;exitX=0;exitY=0.5;exitDx=0;exitDy=0;" edge="1" parent="1" source="1AR1Cco3kjqSS6mcWAjd-43" target="HbxGi6H0YP1Ia_wOUCqk-77">
          <mxGeometry width="50" height="50" relative="1" as="geometry">
            <mxPoint x="205" y="620" as="sourcePoint" />
            <mxPoint x="60" y="820" as="targetPoint" />
          </mxGeometry>
        </mxCell>
        <mxCell id="1AR1Cco3kjqSS6mcWAjd-53" value="" style="endArrow=none;html=1;rounded=0;exitX=0.5;exitY=0;exitDx=0;exitDy=0;entryX=1;entryY=0.5;entryDx=0;entryDy=0;" edge="1" parent="1" source="1AR1Cco3kjqSS6mcWAjd-45" target="HbxGi6H0YP1Ia_wOUCqk-77">
          <mxGeometry width="50" height="50" relative="1" as="geometry">
            <mxPoint x="220" y="610" as="sourcePoint" />
            <mxPoint x="-380" y="750" as="targetPoint" />
          </mxGeometry>
        </mxCell>
        <mxCell id="1AR1Cco3kjqSS6mcWAjd-54" value="" style="endArrow=none;html=1;rounded=0;exitX=0.5;exitY=1;exitDx=0;exitDy=0;entryX=1;entryY=0.5;entryDx=0;entryDy=0;" edge="1" parent="1" source="1AR1Cco3kjqSS6mcWAjd-45" target="HbxGi6H0YP1Ia_wOUCqk-90">
          <mxGeometry width="50" height="50" relative="1" as="geometry">
            <mxPoint x="-158" y="770" as="sourcePoint" />
            <mxPoint x="-380" y="760" as="targetPoint" />
          </mxGeometry>
        </mxCell>
        <mxCell id="1AR1Cco3kjqSS6mcWAjd-55" value="Melakukan" style="rhombus;whiteSpace=wrap;html=1;" vertex="1" parent="1">
          <mxGeometry x="212" y="680" width="170" height="80" as="geometry" />
        </mxCell>
        <mxCell id="1AR1Cco3kjqSS6mcWAjd-56" value="" style="endArrow=none;html=1;rounded=0;entryX=1;entryY=0.5;entryDx=0;entryDy=0;exitX=0.5;exitY=0;exitDx=0;exitDy=0;" edge="1" parent="1" source="1AR1Cco3kjqSS6mcWAjd-55" target="HbxGi6H0YP1Ia_wOUCqk-3">
          <mxGeometry width="50" height="50" relative="1" as="geometry">
            <mxPoint x="-158" y="610" as="sourcePoint" />
            <mxPoint x="-230" y="370" as="targetPoint" />
          </mxGeometry>
        </mxCell>
        <mxCell id="1AR1Cco3kjqSS6mcWAjd-57" value="" style="endArrow=none;html=1;rounded=0;entryX=1;entryY=0.5;entryDx=0;entryDy=0;exitX=0.5;exitY=1;exitDx=0;exitDy=0;" edge="1" parent="1" source="1AR1Cco3kjqSS6mcWAjd-55" target="HbxGi6H0YP1Ia_wOUCqk-90">
          <mxGeometry width="50" height="50" relative="1" as="geometry">
            <mxPoint x="213" y="800" as="sourcePoint" />
            <mxPoint x="-240" y="450" as="targetPoint" />
          </mxGeometry>
        </mxCell>
        <mxCell id="1AR1Cco3kjqSS6mcWAjd-58" value="Mempunyai" style="rhombus;whiteSpace=wrap;html=1;" vertex="1" parent="1">
          <mxGeometry x="-170" y="710" width="170" height="80" as="geometry" />
        </mxCell>
        <mxCell id="1AR1Cco3kjqSS6mcWAjd-59" value="" style="endArrow=none;html=1;rounded=0;entryX=1;entryY=0.5;entryDx=0;entryDy=0;exitX=0;exitY=0.5;exitDx=0;exitDy=0;" edge="1" parent="1" source="1AR1Cco3kjqSS6mcWAjd-58" target="HbxGi6H0YP1Ia_wOUCqk-77">
          <mxGeometry width="50" height="50" relative="1" as="geometry">
            <mxPoint x="-159" y="740" as="sourcePoint" />
            <mxPoint x="-231" y="500" as="targetPoint" />
          </mxGeometry>
        </mxCell>
        <mxCell id="1AR1Cco3kjqSS6mcWAjd-60" value="" style="endArrow=none;html=1;rounded=0;entryX=1;entryY=0.5;entryDx=0;entryDy=0;exitX=0.5;exitY=0;exitDx=0;exitDy=0;" edge="1" parent="1" source="HbxGi6H0YP1Ia_wOUCqk-108" target="1AR1Cco3kjqSS6mcWAjd-58">
          <mxGeometry width="50" height="50" relative="1" as="geometry">
            <mxPoint x="222" y="860" as="sourcePoint" />
            <mxPoint y="800" as="targetPoint" />
          </mxGeometry>
        </mxCell>
        <mxCell id="1AR1Cco3kjqSS6mcWAjd-61" value="Terdiri" style="rhombus;whiteSpace=wrap;html=1;" vertex="1" parent="1">
          <mxGeometry x="505" y="680" width="170" height="80" as="geometry" />
        </mxCell>
        <mxCell id="1AR1Cco3kjqSS6mcWAjd-62" value="" style="endArrow=none;html=1;rounded=0;entryX=1;entryY=0.5;entryDx=0;entryDy=0;exitX=0;exitY=0.5;exitDx=0;exitDy=0;" edge="1" parent="1" source="1AR1Cco3kjqSS6mcWAjd-61" target="HbxGi6H0YP1Ia_wOUCqk-90">
          <mxGeometry width="50" height="50" relative="1" as="geometry">
            <mxPoint x="308" y="790" as="sourcePoint" />
            <mxPoint x="-230" y="1075" as="targetPoint" />
          </mxGeometry>
        </mxCell>
        <mxCell id="1AR1Cco3kjqSS6mcWAjd-63" value="" style="endArrow=none;html=1;rounded=0;entryX=0.5;entryY=0;entryDx=0;entryDy=0;exitX=1;exitY=0.5;exitDx=0;exitDy=0;" edge="1" parent="1" source="1AR1Cco3kjqSS6mcWAjd-61" target="HbxGi6H0YP1Ia_wOUCqk-156">
          <mxGeometry width="50" height="50" relative="1" as="geometry">
            <mxPoint x="780" y="825" as="sourcePoint" />
            <mxPoint x="50" y="1090" as="targetPoint" />
          </mxGeometry>
        </mxCell>
        <mxCell id="1AR1Cco3kjqSS6mcWAjd-64" value="Membuat" style="rhombus;whiteSpace=wrap;html=1;" vertex="1" parent="1">
          <mxGeometry x="505" y="770" width="170" height="80" as="geometry" />
        </mxCell>
        <mxCell id="1AR1Cco3kjqSS6mcWAjd-65" value="" style="endArrow=none;html=1;rounded=0;entryX=0.5;entryY=0;entryDx=0;entryDy=0;exitX=0.5;exitY=1;exitDx=0;exitDy=0;" edge="1" parent="1" source="1AR1Cco3kjqSS6mcWAjd-64" target="HbxGi6H0YP1Ia_wOUCqk-122">
          <mxGeometry width="50" height="50" relative="1" as="geometry">
            <mxPoint x="425" y="840" as="sourcePoint" />
            <mxPoint x="560" y="910" as="targetPoint" />
          </mxGeometry>
        </mxCell>
        <mxCell id="1AR1Cco3kjqSS6mcWAjd-66" value="" style="endArrow=none;html=1;rounded=0;entryX=0.5;entryY=0;entryDx=0;entryDy=0;exitX=1;exitY=0.5;exitDx=0;exitDy=0;" edge="1" parent="1" source="1AR1Cco3kjqSS6mcWAjd-64" target="HbxGi6H0YP1Ia_wOUCqk-156">
          <mxGeometry width="50" height="50" relative="1" as="geometry">
            <mxPoint x="600" y="860" as="sourcePoint" />
            <mxPoint x="600" y="1030" as="targetPoint" />
          </mxGeometry>
        </mxCell>
        <mxCell id="1AR1Cco3kjqSS6mcWAjd-67" value="Dilakukan" style="rhombus;whiteSpace=wrap;html=1;" vertex="1" parent="1">
          <mxGeometry x="940" y="710" width="170" height="80" as="geometry" />
        </mxCell>
        <mxCell id="1AR1Cco3kjqSS6mcWAjd-68" value="" style="endArrow=none;html=1;rounded=0;entryX=0.5;entryY=0;entryDx=0;entryDy=0;exitX=0.5;exitY=1;exitDx=0;exitDy=0;" edge="1" parent="1" source="1AR1Cco3kjqSS6mcWAjd-67" target="HbxGi6H0YP1Ia_wOUCqk-156">
          <mxGeometry width="50" height="50" relative="1" as="geometry">
            <mxPoint x="750" y="740" as="sourcePoint" />
            <mxPoint x="1200" y="950" as="targetPoint" />
          </mxGeometry>
        </mxCell>
        <mxCell id="1AR1Cco3kjqSS6mcWAjd-69" value="" style="endArrow=none;html=1;rounded=0;entryX=0;entryY=0.5;entryDx=0;entryDy=0;exitX=1;exitY=0.5;exitDx=0;exitDy=0;" edge="1" parent="1" source="1AR1Cco3kjqSS6mcWAjd-67" target="HbxGi6H0YP1Ia_wOUCqk-177">
          <mxGeometry width="50" height="50" relative="1" as="geometry">
            <mxPoint x="1035" y="800" as="sourcePoint" />
            <mxPoint x="1135" y="1030" as="targetPoint" />
          </mxGeometry>
        </mxCell>
        <mxCell id="1AR1Cco3kjqSS6mcWAjd-74" value="(1)" style="text;html=1;align=center;verticalAlign=middle;whiteSpace=wrap;rounded=0;" vertex="1" parent="1">
          <mxGeometry x="-210" y="575" width="60" height="30" as="geometry" />
        </mxCell>
        <mxCell id="1AR1Cco3kjqSS6mcWAjd-75" value="(N)" style="text;html=1;align=center;verticalAlign=middle;whiteSpace=wrap;rounded=0;" vertex="1" parent="1">
          <mxGeometry x="-33" y="570" width="60" height="30" as="geometry" />
        </mxCell>
        <mxCell id="1AR1Cco3kjqSS6mcWAjd-76" value="(1)" style="text;html=1;align=center;verticalAlign=middle;whiteSpace=wrap;rounded=0;" vertex="1" parent="1">
          <mxGeometry x="870" y="560" width="60" height="30" as="geometry" />
        </mxCell>
        <mxCell id="1AR1Cco3kjqSS6mcWAjd-77" value="(N)" style="text;html=1;align=center;verticalAlign=middle;whiteSpace=wrap;rounded=0;" vertex="1" parent="1">
          <mxGeometry x="710" y="560" width="60" height="30" as="geometry" />
        </mxCell>
        <mxCell id="1AR1Cco3kjqSS6mcWAjd-78" value="(1)" style="text;html=1;align=center;verticalAlign=middle;whiteSpace=wrap;rounded=0;" vertex="1" parent="1">
          <mxGeometry x="350" y="560" width="60" height="30" as="geometry" />
        </mxCell>
        <mxCell id="1AR1Cco3kjqSS6mcWAjd-81" value="(N)" style="text;html=1;align=center;verticalAlign=middle;whiteSpace=wrap;rounded=0;" vertex="1" parent="1">
          <mxGeometry x="167" y="575" width="60" height="30" as="geometry" />
        </mxCell>
        <mxCell id="1AR1Cco3kjqSS6mcWAjd-82" value="(1)" style="text;html=1;align=center;verticalAlign=middle;whiteSpace=wrap;rounded=0;" vertex="1" parent="1">
          <mxGeometry x="-160" y="865" width="60" height="30" as="geometry" />
        </mxCell>
        <mxCell id="1AR1Cco3kjqSS6mcWAjd-83" value="(N)" style="text;html=1;align=center;verticalAlign=middle;whiteSpace=wrap;rounded=0;" vertex="1" parent="1">
          <mxGeometry x="-150" y="950" width="60" height="30" as="geometry" />
        </mxCell>
        <mxCell id="1AR1Cco3kjqSS6mcWAjd-84" value="(1)" style="text;html=1;align=center;verticalAlign=middle;whiteSpace=wrap;rounded=0;" vertex="1" parent="1">
          <mxGeometry x="230" y="660" width="60" height="30" as="geometry" />
        </mxCell>
        <mxCell id="1AR1Cco3kjqSS6mcWAjd-85" value="(1)" style="text;html=1;align=center;verticalAlign=middle;whiteSpace=wrap;rounded=0;" vertex="1" parent="1">
          <mxGeometry x="230" y="750" width="60" height="30" as="geometry" />
        </mxCell>
        <mxCell id="1AR1Cco3kjqSS6mcWAjd-86" value="(1)" style="text;html=1;align=center;verticalAlign=middle;whiteSpace=wrap;rounded=0;" vertex="1" parent="1">
          <mxGeometry x="-205" y="750" width="60" height="30" as="geometry" />
        </mxCell>
        <mxCell id="1AR1Cco3kjqSS6mcWAjd-94" value="(N)" style="text;html=1;align=center;verticalAlign=middle;whiteSpace=wrap;rounded=0;" vertex="1" parent="1">
          <mxGeometry x="-13" y="750" width="60" height="30" as="geometry" />
        </mxCell>
        <mxCell id="1AR1Cco3kjqSS6mcWAjd-95" value="(1)" style="text;html=1;align=center;verticalAlign=middle;whiteSpace=wrap;rounded=0;" vertex="1" parent="1">
          <mxGeometry x="460" y="700" width="60" height="30" as="geometry" />
        </mxCell>
        <mxCell id="1AR1Cco3kjqSS6mcWAjd-96" value="(N)" style="text;html=1;align=center;verticalAlign=middle;whiteSpace=wrap;rounded=0;" vertex="1" parent="1">
          <mxGeometry x="660" y="695" width="60" height="30" as="geometry" />
        </mxCell>
        <mxCell id="1AR1Cco3kjqSS6mcWAjd-97" value="(1)" style="text;html=1;align=center;verticalAlign=middle;whiteSpace=wrap;rounded=0;" vertex="1" parent="1">
          <mxGeometry x="540" y="840" width="60" height="30" as="geometry" />
        </mxCell>
        <mxCell id="1AR1Cco3kjqSS6mcWAjd-98" value="(N)" style="text;html=1;align=center;verticalAlign=middle;whiteSpace=wrap;rounded=0;" vertex="1" parent="1">
          <mxGeometry x="660" y="790" width="60" height="30" as="geometry" />
        </mxCell>
        <mxCell id="1AR1Cco3kjqSS6mcWAjd-99" value="(1)" style="text;html=1;align=center;verticalAlign=middle;whiteSpace=wrap;rounded=0;" vertex="1" parent="1">
          <mxGeometry x="980" y="790" width="60" height="30" as="geometry" />
        </mxCell>
        <mxCell id="1AR1Cco3kjqSS6mcWAjd-100" value="(N)" style="text;html=1;align=center;verticalAlign=middle;whiteSpace=wrap;rounded=0;" vertex="1" parent="1">
          <mxGeometry x="1080" y="720" width="60" height="30" as="geometry" />
        </mxCell>
        <mxCell id="1AR1Cco3kjqSS6mcWAjd-101" value="Dapat dilakukan" style="rhombus;whiteSpace=wrap;html=1;" vertex="1" parent="1">
          <mxGeometry x="210" y="830" width="170" height="80" as="geometry" />
        </mxCell>
        <mxCell id="1AR1Cco3kjqSS6mcWAjd-102" value="" style="endArrow=none;html=1;rounded=0;entryX=0.5;entryY=1;entryDx=0;entryDy=0;exitX=1;exitY=0.5;exitDx=0;exitDy=0;" edge="1" parent="1" source="1AR1Cco3kjqSS6mcWAjd-101" target="HbxGi6H0YP1Ia_wOUCqk-65">
          <mxGeometry width="50" height="50" relative="1" as="geometry">
            <mxPoint x="675" y="660" as="sourcePoint" />
            <mxPoint x="540" y="420" as="targetPoint" />
          </mxGeometry>
        </mxCell>
        <mxCell id="1AR1Cco3kjqSS6mcWAjd-103" value="" style="endArrow=none;html=1;rounded=0;exitX=1;exitY=0.5;exitDx=0;exitDy=0;entryX=0;entryY=0.5;entryDx=0;entryDy=0;" edge="1" parent="1" source="HbxGi6H0YP1Ia_wOUCqk-90" target="1AR1Cco3kjqSS6mcWAjd-101">
          <mxGeometry width="50" height="50" relative="1" as="geometry">
            <mxPoint x="390" y="490" as="sourcePoint" />
            <mxPoint x="535" y="410" as="targetPoint" />
          </mxGeometry>
        </mxCell>
        <mxCell id="1AR1Cco3kjqSS6mcWAjd-104" value="(N)" style="text;html=1;align=center;verticalAlign=middle;whiteSpace=wrap;rounded=0;" vertex="1" parent="1">
          <mxGeometry x="340" y="835" width="60" height="30" as="geometry" />
        </mxCell>
        <mxCell id="1AR1Cco3kjqSS6mcWAjd-105" value="(1)" style="text;html=1;align=center;verticalAlign=middle;whiteSpace=wrap;rounded=0;" vertex="1" parent="1">
          <mxGeometry x="180" y="870" width="60" height="30" as="geometry" />
        </mxCell>
      </root>
    </mxGraphModel>
  </diagram>
</mxfile>
